<?xml version="1.0" encoding="UTF-8" standalone="no"?>
<!-- Created with Inkscape (http://www.inkscape.org/) -->

<svg
   xmlns:dc="http://purl.org/dc/elements/1.1/"
   xmlns:cc="http://creativecommons.org/ns#"
   xmlns:rdf="http://www.w3.org/1999/02/22-rdf-syntax-ns#"
   xmlns:svg="http://www.w3.org/2000/svg"
   xmlns="http://www.w3.org/2000/svg"
   xmlns:sodipodi="http://sodipodi.sourceforge.net/DTD/sodipodi-0.dtd"
   xmlns:inkscape="http://www.inkscape.org/namespaces/inkscape"
   width="216.99998"
   height="50.10638"
   viewBox="0 0 57.414581 13.257313"
   version="1.1"
   id="svg27385"
   inkscape:version="0.92.0 r15299"
   sodipodi:docname="jack kent cooke foundation.svg">
  <defs
     id="defs27379">
    <clipPath
       id="clipPath19812"
       clipPathUnits="userSpaceOnUse">
      <path
         inkscape:connector-curvature="0"
         id="path19810"
         d="m 72.48,692.171 h 162 V 729 h -162 z" />
    </clipPath>
  </defs>
  <sodipodi:namedview
     id="base"
     pagecolor="#ffffff"
     bordercolor="#666666"
     borderopacity="1.0"
     inkscape:pageopacity="0.0"
     inkscape:pageshadow="2"
     inkscape:zoom="4.1527779"
     inkscape:cx="108"
     inkscape:cy="24.553665"
     inkscape:document-units="mm"
     inkscape:current-layer="layer1"
     showgrid="false"
     fit-margin-top="0"
     fit-margin-left="0"
     fit-margin-right="0"
     fit-margin-bottom="0"
     units="px"
     inkscape:window-width="1280"
     inkscape:window-height="744"
     inkscape:window-x="-4"
     inkscape:window-y="-4"
     inkscape:window-maximized="1" />
  <metadata
     id="metadata27382">
    <rdf:RDF>
      <cc:Work
         rdf:about="">
        <dc:format>image/svg+xml</dc:format>
        <dc:type
           rdf:resource="http://purl.org/dc/dcmitype/StillImage" />
        <dc:title></dc:title>
      </cc:Work>
    </rdf:RDF>
  </metadata>
  <g
     inkscape:label="Layer 1"
     inkscape:groupmode="layer"
     id="layer1"
     transform="translate(16.101785,-142.07251)">
    <g
       id="g27650"
       transform="translate(0.13229215,-0.13228817)">
      <path
         d="m -6.8544568,152.73821 c 0,-0.16263 0,-0.1711 0.1284111,-0.1711 h 0.2614083 c 0.1799167,0 0.3210278,0.004 0.4152195,0.0254 0.2141361,0.06 0.2656416,0.21449 0.2998611,0.40711 0.029986,0.0254 0.089958,0.0123 0.1026583,-0.0134 -0.00847,-0.16298 -0.0127,-0.36794 -0.0127,-0.56515 -0.055386,0.0131 -0.3037417,0.0131 -0.5782028,0.0131 H -7.025554 c -0.17145,0 -0.3167945,-0.004 -0.4967111,-0.0131 -0.025753,0.0131 -0.034572,0.09 -0.00882,0.10725 l 0.068792,0.009 c 0.2483556,0.03 0.2568222,0.09 0.2568222,0.53939 v 1.542 c 0,0.44943 -0.00847,0.50517 -0.2568222,0.53516 l -0.1075972,0.013 c -0.0254,0.0254 -0.016933,0.0942 0.00882,0.10654 0.2014361,-0.008 0.3471334,-0.0123 0.5355167,-0.0123 0.1710972,0 0.3167944,0.004 0.5697361,0.0123 0.0254,-0.0123 0.033867,-0.09 0.00847,-0.10654 l -0.14605,-0.013 c -0.2522361,-0.0219 -0.2610555,-0.0857 -0.2610555,-0.53516 v -0.59549 c 0,-0.11148 0.013053,-0.11536 0.1414639,-0.11536 h 0.2910416 c 0.1626306,0 0.269875,0.004 0.3298473,0.0212 0.081139,0.0254 0.1199444,0.0857 0.1372305,0.16264 l 0.042686,0.16686 c 0.029986,0.0261 0.094192,0.0261 0.1114778,0 0,-0.0981 -0.017286,-0.26106 -0.017286,-0.41557 0,-0.1584 0.017286,-0.3295 0.017286,-0.43251 -0.017286,-0.025 -0.089958,-0.025 -0.1114778,0 l -0.038453,0.1718 c -0.025753,0.11113 -0.060325,0.13265 -0.1072444,0.14958 -0.051153,0.0173 -0.1883833,0.0254 -0.3640667,0.0254 h -0.2910416 c -0.1284111,0 -0.1414639,0 -0.1414639,-0.115 z"
         style="fill:#231f20;fill-opacity:1;fill-rule:nonzero;stroke:none;stroke-width:0.35277778"
         id="path19816"
         inkscape:connector-curvature="0" />
      <path
         d="m -2.3870203,155.19633 c -0.8434916,0 -1.1521722,-0.82197 -1.1521722,-1.45627 0,-0.93803 0.5782028,-1.24142 1.0237611,-1.24142 0.8177389,0 1.1306527,0.76235 1.1306527,1.46861 0,0.84385 -0.4882444,1.22908 -1.0022416,1.22908 m -0.055739,0.133 c 0.8265583,0 1.48625276,-0.62936 1.48625276,-1.49472 0,-0.75389 -0.49706386,-1.46932 -1.48625276,-1.46932 -0.8819444,0 -1.5247055,0.65581 -1.5247055,1.512 0,0.77082 0.5739694,1.45204 1.5247055,1.45204"
         style="fill:#231f20;fill-opacity:1;fill-rule:evenodd;stroke:none;stroke-width:0.35277778"
         id="path19820"
         inkscape:connector-curvature="0" />
      <path
         d="m 3.1180416,154.00158 c 0,0.65087 -0.2353028,1.13912 -0.8565444,1.13912 -0.6551083,0 -0.8692445,-0.45403 -0.8692445,-1.14335 v -0.92534 c 0,-0.4452 0.00847,-0.51823 0.2568223,-0.53975 l 0.1030111,-0.008 c 0.0254,-0.0169 0.016933,-0.0899 -0.00882,-0.10301 -0.2099027,0.009 -0.3510139,0.0131 -0.5266972,0.0131 -0.17145,0 -0.31679442,-0.004 -0.53093052,-0.0131 -0.0257528,0.0131 -0.0345722,0.0861 -0.008819,0.10301 l 0.10724444,0.008 c 0.24835548,0.0215 0.25682218,0.0945 0.25682218,0.53975 v 1.01071 c 0,0.51012 0.1072444,0.82268 0.3340805,1.01141 0.2099028,0.17886 0.5055306,0.23531 0.8008056,0.23531 0.3171472,0 0.6339416,-0.11184 0.8180917,-0.31292 0.2398889,-0.25682 0.2998611,-0.65123 0.2998611,-1.02305 v -0.48437 c 0,-0.23953 -0.00459,-0.73272 0.059972,-0.87383 0.021519,-0.0557 0.1068916,-0.0942 0.2137833,-0.10301 l 0.1030111,-0.008 c 0.021519,-0.025 0.025753,-0.0811 -0.00847,-0.10301 -0.1541639,0.009 -0.269875,0.0131 -0.4497916,0.0131 -0.1668639,0 -0.3256139,-0.004 -0.4882445,-0.0131 -0.025753,0.0173 -0.034219,0.073 -0.00882,0.10301 l 0.1072444,0.008 c 0.1072445,0.009 0.1845028,0.0392 0.2141361,0.0903 0.073025,0.12877 0.081492,0.62089 0.081492,0.88653 z"
         style="fill:#231f20;fill-opacity:1;fill-rule:nonzero;stroke:none;stroke-width:0.35277778"
         id="path19824"
         inkscape:connector-curvature="0" />
      <path
         d="m 7.8599745,153.50924 c 0,-0.19685 -0.00847,-0.72813 0.064558,-0.8823 0.016933,-0.0342 0.1026584,-0.0684 0.2395361,-0.09 l 0.059972,-0.009 c 0.025753,-0.0254 0.025753,-0.0857 -0.00882,-0.10725 -0.1453444,0.009 -0.2568222,0.013 -0.4409722,0.013 -0.1626306,0 -0.3083278,-0.004 -0.5051778,-0.013 -0.034219,0.013 -0.038805,0.0819 -0.00847,0.10725 l 0.072672,0.009 c 0.17145,0.0215 0.2398889,0.0466 0.2656417,0.0857 0.081139,0.12841 0.085372,0.68474 0.085372,0.88653 v 0.91581 c 0,0.0907 0,0.15875 -0.016933,0.18027 h -0.00847 C 7.4574551,154.4 7.243319,154.16435 6.9519245,153.82991 l -0.4152194,-0.46637 c -0.1372306,-0.15839 -0.6466417,-0.72425 -0.7323667,-0.94262 -0.055386,0.009 -0.1284111,0.013 -0.19685,0.013 -0.077258,0 -0.3040944,0 -0.4840111,-0.013 -0.034219,0.0173 -0.034219,0.0819 -0.00882,0.10725 l 0.073025,0.009 c 0.1026583,0.0127 0.2053167,0.0427 0.2652889,0.10231 0.089958,0.0991 0.094192,0.18874 0.094192,0.30868 v 1.23754 c 0,0.20603 0.00459,0.72849 -0.055386,0.8823 -0.021519,0.0473 -0.089958,0.0773 -0.1883833,0.0861 l -0.1157111,0.0131 c -0.025753,0.025 -0.02152,0.085 0.00847,0.10619 0.1499305,-0.008 0.2656416,-0.0123 0.4452055,-0.0123 0.15875,0 0.3086806,0.004 0.5012972,0.0123 0.030339,-0.0212 0.034572,-0.0727 0.00847,-0.10619 l -0.1322917,-0.0131 c -0.1072444,-0.009 -0.1887361,-0.0346 -0.2187222,-0.0818 -0.068439,-0.12842 -0.077258,-0.6851 -0.077258,-0.88654 v -0.9338 c 0,-0.12806 0.00423,-0.22648 0.021519,-0.27799 h 0.00847 c 0.089958,0.0942 0.381,0.44556 0.4970639,0.57821 l 0.9934222,1.13065 c 0.3725333,0.42368 0.4967111,0.57362 0.5482166,0.64699 0.047272,0 0.072672,-0.0219 0.081492,-0.0476 -0.013053,-0.11183 -0.013053,-0.62054 -0.013053,-0.7493 z"
         style="fill:#231f20;fill-opacity:1;fill-rule:nonzero;stroke:none;stroke-width:0.35277778"
         id="path19828"
         inkscape:connector-curvature="0" />
      <path
         d="m 10.546871,152.9394 c 0,-0.19297 0.0085,-0.29986 0.04269,-0.32561 0.03457,-0.0254 0.17145,-0.06 0.424039,-0.06 1.122186,0 1.349375,0.79693 1.349375,1.26789 0,0.79657 -0.373239,1.34055 -1.203678,1.34055 -0.269875,0 -0.432505,-0.043 -0.526697,-0.17603 -0.07302,-0.10231 -0.08573,-0.23954 -0.08573,-0.46602 z m -0.351014,1.67887 c 0,0.44944 -0.0085,0.50094 -0.2571749,0.53516 l -0.098425,0.0131 c -0.025753,0.0257 -0.017286,0.0945 0.00847,0.10689 0.2014359,-0.008 0.3555999,-0.0123 0.5355159,-0.0123 0.149931,0 0.423687,0.0335 0.697795,0.0335 0.329847,0 0.681214,-0.055 0.959555,-0.20531 0.488245,-0.26529 0.7493,-0.73272 0.7493,-1.276 0,-0.5655 -0.291394,-1.05375 -0.869244,-1.26365 -0.278342,-0.10266 -0.582436,-0.12841 -0.942269,-0.12841 -0.364067,0 -0.710848,0.0131 -1.074914,0.0342 -0.042686,0.0173 -0.038453,0.0857 -0.00423,0.10724 l 0.094192,0.0131 c 0.179917,0.0257 0.201436,0.115 0.201436,0.41522 z"
         style="fill:#231f20;fill-opacity:1;fill-rule:evenodd;stroke:none;stroke-width:0.35277778"
         id="path19832"
         inkscape:connector-curvature="0" />
      <path
         d="m 15.438805,153.14059 c 0.04727,-0.12841 0.08996,-0.23072 0.103011,-0.25259 h 0.0085 c 0.02575,0.0515 0.0642,0.16687 0.09842,0.26952 l 0.231069,0.6985 c 0.03881,0.11536 0.03034,0.13265 -0.09419,0.13265 H 15.25927 c -0.120297,0 -0.12453,-0.004 -0.09031,-0.10301 z m 0.766233,1.70886 c 0.03457,0.10301 0.05645,0.17991 0.05645,0.22718 0,0.0427 -0.06068,0.0681 -0.150284,0.0773 l -0.124177,0.0127 c -0.02999,0.0212 -0.02575,0.0893 0.0088,0.10689 0.124178,-0.005 0.286808,-0.0127 0.492125,-0.0127 0.19297,0 0.3429,0.004 0.518583,0.0127 0.02117,-0.0176 0.02999,-0.0857 0,-0.10689 l -0.116063,-0.0127 c -0.18415,-0.0222 -0.239537,-0.0861 -0.363714,-0.45438 l -0.58667,-1.72155 c -0.0642,-0.18838 -0.132997,-0.38559 -0.188383,-0.57432 -0.0088,-0.0293 -0.03916,-0.0381 -0.06421,-0.0381 -0.04763,0.0554 -0.120297,0.13299 -0.223308,0.16263 0.01305,0.0684 -0.01235,0.14993 -0.07232,0.30409 l -0.437092,1.15641 c -0.179564,0.47978 -0.299508,0.75776 -0.376414,0.95497 -0.06032,0.15451 -0.154517,0.20108 -0.257175,0.21025 l -0.141464,0.0127 c -0.02575,0.0212 -0.01729,0.0893 0.0088,0.10689 0.115358,-0.005 0.269522,-0.0127 0.411338,-0.0127 0.201084,0.004 0.333728,0.004 0.444853,0.0127 0.03881,-0.0176 0.03881,-0.0857 0.0088,-0.10689 l -0.141464,-0.0127 c -0.103011,-0.009 -0.124178,-0.0346 -0.124178,-0.0861 0,-0.0473 0.02999,-0.16263 0.09419,-0.3556 l 0.150283,-0.44979 c 0.02963,-0.09 0.05539,-0.1023 0.162278,-0.1023 h 0.646994 c 0.128411,0 0.145345,0.0123 0.175331,0.10689 z"
         style="fill:#231f20;fill-opacity:1;fill-rule:evenodd;stroke:none;stroke-width:0.35277778"
         id="path19836"
         inkscape:connector-curvature="0" />
      <path
         d="m 19.503475,152.71217 c 0,-0.14076 -0.0042,-0.14499 0.124178,-0.14499 h 0.304094 c 0.235656,0 0.398286,0.0342 0.497064,0.10654 0.06421,0.0473 0.09419,0.20602 0.106892,0.31221 0.02152,0.0261 0.09419,0.0261 0.111478,-0.008 -0.01305,-0.12841 0.01693,-0.47519 0.06385,-0.65087 -0.0081,-0.0173 -0.05539,-0.0212 -0.07691,-0.0131 -0.06421,0.11148 -0.102306,0.11995 -0.334081,0.11995 h -1.733903 c -0.197555,0 -0.338666,0.005 -0.364772,-0.13229 -0.01235,-0.0131 -0.06844,-0.009 -0.08114,0 -0.02999,0.17109 -0.09454,0.44485 -0.16263,0.63782 0.01729,0.0342 0.07691,0.0557 0.111478,0.0303 0.04692,-0.10725 0.08996,-0.20144 0.192263,-0.29598 0.107245,-0.0984 0.3429,-0.10654 0.526698,-0.10654 h 0.236008 c 0.128411,0 0.128411,0.004 0.128411,0.13688 v 1.91417 c 0,0.44979 -0.02117,0.51364 -0.265642,0.53551 l -0.153811,0.0131 c -0.03422,0.0212 -0.0254,0.0938 0,0.10654 0.274109,-0.008 0.424039,-0.0127 0.595136,-0.0127 0.171098,0 0.316795,0.004 0.560917,0.0127 0.02575,-0.0127 0.03457,-0.09 0.0085,-0.10654 l -0.136878,-0.0131 c -0.248708,-0.0261 -0.257175,-0.0857 -0.257175,-0.53551 z"
         style="fill:#231f20;fill-opacity:1;fill-rule:nonzero;stroke:none;stroke-width:0.35277778"
         id="path19840"
         inkscape:connector-curvature="0" />
      <path
         d="m 22.588058,154.60984 c 0,0.45367 -0.0081,0.51364 -0.260703,0.54398 l -0.107597,0.0131 c -0.0254,0.0254 -0.01693,0.0938 0.0085,0.10618 0.214489,-0.008 0.359833,-0.0123 0.53975,-0.0123 0.17145,0 0.317147,0.004 0.531283,0.0123 0.02575,-0.0123 0.03422,-0.09 0.0085,-0.10618 l -0.107245,-0.0131 c -0.252589,-0.0303 -0.261055,-0.0903 -0.261055,-0.54398 v -1.52506 c 0,-0.45367 0.0085,-0.52634 0.261055,-0.54786 l 0.107245,-0.009 c 0.02575,-0.0173 0.01729,-0.0942 -0.0085,-0.10725 -0.214136,0.009 -0.359833,0.0131 -0.531283,0.0131 -0.179917,0 -0.325261,-0.004 -0.53975,-0.0131 -0.0254,0.0131 -0.03387,0.09 -0.0085,0.10725 l 0.107597,0.009 c 0.252589,0.0215 0.260703,0.0942 0.260703,0.54786 z"
         style="fill:#231f20;fill-opacity:1;fill-rule:nonzero;stroke:none;stroke-width:0.35277778"
         id="path19844"
         inkscape:connector-curvature="0" />
      <path
         d="m 26.550811,155.19633 c -0.844197,0 -1.152172,-0.82197 -1.152172,-1.45627 0,-0.93803 0.57785,-1.24142 1.023408,-1.24142 0.818092,0 1.130653,0.76235 1.130653,1.46861 0,0.84385 -0.488245,1.22908 -1.001889,1.22908 m -0.05609,0.133 c 0.826559,0 1.4859,-0.62936 1.4859,-1.49472 0,-0.75389 -0.496711,-1.46932 -1.4859,-1.46932 -0.881944,0 -1.524705,0.65581 -1.524705,1.512 0,0.77082 0.573969,1.45204 1.524705,1.45204"
         style="fill:#231f20;fill-opacity:1;fill-rule:evenodd;stroke:none;stroke-width:0.35277778"
         id="path19848"
         inkscape:connector-curvature="0" />
      <path
         d="m 32.316576,153.50924 c 0,-0.19685 -0.0081,-0.72813 0.06456,-0.8823 0.01693,-0.0342 0.102659,-0.0684 0.239536,-0.09 l 0.05962,-0.009 c 0.02611,-0.0254 0.02611,-0.0857 -0.0081,-0.10725 -0.145697,0.009 -0.257175,0.013 -0.440972,0.013 -0.162631,0 -0.308328,-0.004 -0.505531,-0.013 -0.03422,0.013 -0.03845,0.0819 -0.0085,0.10725 l 0.07267,0.009 c 0.17145,0.0215 0.239889,0.0466 0.265994,0.0857 0.08079,0.12841 0.08537,0.68474 0.08537,0.88653 v 0.91581 c 0,0.0907 0,0.15875 -0.01764,0.18027 h -0.0081 C 31.914057,154.4 31.69992,154.16435 31.408879,153.82991 l -0.415572,-0.46637 c -0.137231,-0.15839 -0.646642,-0.72425 -0.732014,-0.94262 -0.05609,0.009 -0.128764,0.013 -0.197556,0.013 -0.07655,0 -0.303741,0 -0.483305,-0.013 -0.03457,0.0173 -0.03457,0.0819 -0.0092,0.10725 l 0.07302,0.009 c 0.103012,0.0127 0.205317,0.0427 0.265642,0.10231 0.08996,0.0991 0.09384,0.18874 0.09384,0.30868 v 1.23754 c 0,0.20603 0.0042,0.72849 -0.05539,0.8823 -0.02152,0.0473 -0.08996,0.0773 -0.188383,0.0861 l -0.115712,0.0131 c -0.0254,0.025 -0.02117,0.085 0.0088,0.10619 0.14993,-0.008 0.265289,-0.0123 0.444853,-0.0123 0.15875,0 0.30868,0.004 0.501297,0.0123 0.03034,-0.0212 0.03457,-0.0727 0.0088,-0.10619 l -0.132644,-0.0131 c -0.107245,-0.009 -0.188736,-0.0346 -0.218722,-0.0818 -0.06844,-0.12842 -0.07691,-0.6851 -0.07691,-0.88654 v -0.9338 c 0,-0.12806 0.0039,-0.22648 0.02117,-0.27799 h 0.0088 c 0.08961,0.0942 0.381,0.44556 0.496711,0.57821 l 0.993422,1.13065 c 0.372887,0.42368 0.497064,0.57362 0.547864,0.64699 0.04762,0 0.07373,-0.0219 0.08184,-0.0476 -0.01305,-0.11183 -0.01305,-0.62054 -0.01305,-0.7493 z"
         style="fill:#231f20;fill-opacity:1;fill-rule:nonzero;stroke:none;stroke-width:0.35277778"
         id="path19852"
         inkscape:connector-curvature="0" />
      <path
         d="m -14.065869,143.44731 c 0,-0.73307 0.06138,-0.75389 0.370417,-0.80857 l 0.0956,-0.0138 c 0.04798,-0.0342 0.04092,-0.17145 -0.01376,-0.19897 -0.253294,0.0141 -0.541161,0.0208 -0.849842,0.0208 -0.308327,0 -0.617008,-0.007 -0.973313,-0.0208 -0.05468,0.0275 -0.06138,0.16475 -0.01341,0.19897 l 0.198261,0.0275 c 0.329142,0.0409 0.390878,0.0617 0.390878,0.79481 v 2.63207 c 0,0.72637 -0.04798,1.22697 -0.06174,1.34338 -0.01341,0.14394 -0.07514,0.54116 -0.239889,0.54116 -0.06174,0 -0.12312,-0.0134 -0.29457,-0.12312 -0.109713,-0.0688 -0.212372,-0.13017 -0.308327,-0.13017 -0.198967,0 -0.315384,0.28081 -0.315384,0.41134 0,0.18485 0.198967,0.22578 0.363009,0.22578 0.781755,0 1.281641,-0.45227 1.501422,-0.99343 0.123119,-0.30868 0.150636,-0.7814 0.150636,-1.32291 z"
         style="fill:#231f20;fill-opacity:1;fill-rule:nonzero;stroke:none;stroke-width:0.35277778"
         id="path19856"
         inkscape:connector-curvature="0" />
      <path
         d="m -12.208741,145.23124 c -0.143933,0 -0.161925,0 -0.09596,-0.17392 l 0.251884,-0.70167 c 0.10795,-0.28187 0.155928,-0.4318 0.179916,-0.47378 h 0.012 c 0.02999,0.042 0.06597,0.15592 0.167922,0.47378 l 0.251883,0.71966 c 0.04798,0.14394 0.02399,0.15593 -0.143933,0.15593 z m 0.701675,0.26987 c 0.167922,0 0.185914,0 0.245886,0.16228 l 0.28187,0.81527 c 0.07796,0.25788 0.05997,0.29387 -0.155928,0.3175 l -0.131939,0.0184 c -0.03598,0.036 -0.02999,0.14393 0.01764,0.17392 0.210608,-0.006 0.474133,-0.018 0.732014,-0.018 0.311502,0 0.5337524,0.006 0.7796385,0.018 0.041628,-0.03 0.041628,-0.13194 -0.006,-0.17392 l -0.090311,-0.0184 c -0.3058585,-0.0536 -0.3354915,-0.0956 -0.4734285,-0.49741 l -0.8636,-2.51249 c -0.09596,-0.27023 -0.173566,-0.55209 -0.269875,-0.82197 -0.02399,-0.0296 -0.05362,-0.048 -0.101952,-0.048 -0.012,0 -0.209903,0.24624 -0.419806,0.28787 0.01799,0.1023 -0.03598,0.24589 -0.113947,0.4378 l -0.821267,2.13501 c -0.125941,0.32385 -0.22225,0.57573 -0.294216,0.73131 -0.08961,0.19826 -0.155928,0.25223 -0.329848,0.27622 l -0.179564,0.03 c -0.04233,0.054 -0.03634,0.14393 0.0056,0.17392 0.210255,-0.012 0.395817,-0.018 0.594078,-0.018 0.245533,0.006 0.443794,0.006 0.635352,0.018 0.04798,-0.024 0.05397,-0.13194 0.01235,-0.17392 l -0.174273,-0.03 c -0.221897,-0.03 -0.245533,-0.048 -0.125941,-0.40181 l 0.245886,-0.71932 c 0.05433,-0.16228 0.04798,-0.16228 0.203905,-0.16228 z"
         style="fill:#231f20;fill-opacity:1;fill-rule:evenodd;stroke:none;stroke-width:0.35277778"
         id="path19860"
         inkscape:connector-curvature="0" />
      <path
         d="m -6.0309324,143.08441 c -0.053975,-0.012 -0.095956,-0.018 -0.1679222,-0.036 -0.2815167,-0.072 -0.6956778,-0.13194 -1.0375194,-0.13194 -0.6057195,0 -1.2114389,0.17392 -1.6552333,0.50976 -0.4434417,0.34184 -0.7552972,0.88759 -0.7552972,1.58927 0,0.78563 0.3658305,1.33103 0.8512527,1.64923 0.4321528,0.28152 0.9415639,0.40146 1.5352889,0.40146 0.3898194,0 0.8036277,-0.1016 0.9355666,-0.14393 0.06597,-0.018 0.1379361,-0.0416 0.2099028,-0.054 0.083961,-0.11394 0.2458861,-0.50976 0.2878667,-0.91157 -0.029986,-0.054 -0.1259417,-0.0776 -0.1799167,-0.0236 -0.1679222,0.38947 -0.4977694,0.89359 -1.2534194,0.89359 -0.7732889,0 -1.5712722,-0.62371 -1.5712722,-1.90112 0,-1.22943 0.7676444,-1.76918 1.5292916,-1.76918 0.7916333,0 1.0615083,0.49777 1.1634611,0.87524 0.041981,0.0423 0.1499306,0.036 0.1919111,-0.0116 -0.059972,-0.4438 -0.071967,-0.79763 -0.083961,-0.93557"
         style="fill:#231f20;fill-opacity:1;fill-rule:nonzero;stroke:none;stroke-width:0.35277778"
         id="path19864"
         inkscape:connector-curvature="0" />
      <path
         d="m -4.3275802,143.87597 c 0,-0.63571 0.053975,-0.6537 0.3358444,-0.68968 l 0.1019528,-0.018 c 0.041981,-0.03 0.035983,-0.14993 -0.011994,-0.17392 -0.2338917,0.012 -0.5037667,0.018 -0.7676445,0.018 -0.2758722,0 -0.5457472,-0.006 -0.7916333,-0.018 -0.047978,0.024 -0.053622,0.13194 -0.011642,0.17392 l 0.1135944,0.018 c 0.2822222,0.036 0.3358444,0.054 0.3358444,0.68968 v 2.23061 c 0,0.63606 -0.053622,0.6537 -0.3358444,0.69603 l -0.083961,0.012 c -0.041981,0.03 -0.035631,0.14958 0.011994,0.17357 0.2159,-0.012 0.4977695,-0.0176 0.7616472,-0.0176 0.2638778,0 0.5337528,0.006 0.8156222,0.0176 0.047978,-0.024 0.053975,-0.14359 0.011995,-0.17357 l -0.1499306,-0.0183 c -0.2818694,-0.036 -0.3358444,-0.0536 -0.3358444,-0.68968 v -0.76129 c 0,-0.17392 -0.011994,-0.31785 0.1379361,-0.31785 0.053975,0 0.1019528,0.0476 0.1439333,0.0899 0.2218973,0.2279 0.9355667,1.19945 1.18745,1.5113 0.06597,0.084 0.053975,0.14359 -0.04198,0.16193 l -0.1622778,0.024 c -0.053622,0.03 -0.053622,0.14958 0.012347,0.17357 0.2638778,-0.012 0.5334,-0.0176 0.8276167,-0.0176 0.3178527,0 0.5573888,0.006 0.7672916,0.0176 0.048331,-0.0176 0.054328,-0.14359 0.011994,-0.17357 l -0.1435805,-0.0183 c -0.1799167,-0.024 -0.3178528,-0.078 -0.4441472,-0.22789 -0.4314472,-0.50341 -1.0011833,-1.21708 -1.4749639,-1.84079 -0.066322,-0.09 -0.053975,-0.12595 0.017992,-0.19791 0.2338917,-0.23389 0.4737805,-0.47978 0.7313083,-0.73766 0.4145139,-0.40181 0.5760861,-0.54575 1.1338278,-0.62371 0.059972,-0.03 0.047625,-0.15593 -0.017992,-0.17392 -0.2159,0.006 -0.4021667,0.018 -0.6596944,0.018 -0.2218973,0 -0.4198056,-0.006 -0.6720417,-0.018 -0.047625,0.048 -0.059619,0.13194 -0.011642,0.17392 l 0.1859139,0.054 c 0.071967,0.018 0.065617,0.066 -0.041981,0.20391 -0.072319,0.096 -0.2458861,0.29422 -0.32385,0.37218 l -0.6117167,0.65934 c -0.1979083,0.2159 -0.3358444,0.35384 -0.4497916,0.35384 -0.095956,0 -0.1019528,-0.10795 -0.1019528,-0.27023 z"
         style="fill:#231f20;fill-opacity:1;fill-rule:nonzero;stroke:none;stroke-width:0.35277778"
         id="path19868"
         inkscape:connector-curvature="0" />
      <path
         d="m 2.0655996,143.43366 c 0,-0.72637 0.061736,-0.74683 0.3838222,-0.78811 l 0.1164167,-0.0205 c 0.047978,-0.0346 0.041275,-0.17145 -0.013758,-0.19896 -0.2670527,0.0138 -0.5753805,0.0205 -0.8773583,0.0205 -0.3150305,0 -0.6237111,-0.007 -0.90452217,-0.0205 -0.0546806,0.0275 -0.0617361,0.15063 -0.0137583,0.19896 l 0.13017499,0.0205 c 0.32208608,0.0413 0.38382218,0.0617 0.38382218,0.78811 v 2.54952 c 0,0.72673 -0.061736,0.74719 -0.38382218,0.79517 l -0.0959556,0.0138 c -0.047625,0.0346 -0.041275,0.1711 0.0137583,0.19862 0.24659158,-0.0134 0.56867768,-0.0205 0.87030268,-0.0205 0.3019778,0 0.6103056,0.007 0.9323917,0.0205 0.05468,-0.0275 0.061736,-0.16404 0.013405,-0.19862 l -0.1710972,-0.0205 c -0.3220861,-0.0413 -0.3838222,-0.0617 -0.3838222,-0.78846 v -0.8703 c 0,-0.19861 -0.013406,-0.36301 0.1576917,-0.36301 0.061736,0 0.1164166,0.0547 0.1643944,0.10266 0.2536472,0.26035 1.0692694,1.37054 1.3571361,1.7272 0.075142,0.096 0.061736,0.16475 -0.047978,0.18521 l -0.1848555,0.0272 c -0.062089,0.0346 -0.062089,0.1711 0.013405,0.19862 0.301625,-0.0134 0.6099528,-0.0205 0.94615,-0.0205 0.3630083,0 0.6371166,0.007 0.8770055,0.0205 0.055033,-0.0205 0.061736,-0.16404 0.013758,-0.19862 l -0.1643945,-0.0205 c -0.2056694,-0.0272 -0.3633611,-0.0892 -0.5072944,-0.26035 -0.4931833,-0.57608 -1.1444111,-1.39171 -1.685925,-2.10432 -0.075494,-0.10301 -0.061736,-0.14393 0.020108,-0.22648 0.2677583,-0.26705 0.5418666,-0.54786 0.836436,-0.84279 0.4727223,-0.45896 0.6582834,-0.62371 1.2954,-0.71261 0.068792,-0.0346 0.054681,-0.1785 -0.020461,-0.19896 -0.2469444,0.007 -0.4593166,0.0205 -0.7538861,0.0205 -0.2536472,0 -0.4801305,-0.007 -0.7676444,-0.0205 -0.055033,0.0547 -0.068439,0.15063 -0.013758,0.19896 l 0.2123722,0.0617 c 0.08255,0.0205 0.075494,0.0751 -0.047978,0.23283 -0.082197,0.10972 -0.2808111,0.33585 -0.3700639,0.4251 l -0.6988527,0.75389 c -0.2264834,0.24659 -0.384175,0.40428 -0.51435,0.40428 -0.1097139,0 -0.1164167,-0.12347 -0.1164167,-0.30868 z"
         style="fill:#231f20;fill-opacity:1;fill-rule:nonzero;stroke:none;stroke-width:0.35277778"
         id="path19872"
         inkscape:connector-curvature="0" />
      <path
         d="m 6.0617604,146.10676 c 0,0.63571 -0.053975,0.6537 -0.3358444,0.68368 l -0.2218973,0.024 c -0.041628,0.042 -0.035983,0.14993 0.011995,0.17392 0.269875,-0.012 0.6357055,-0.018 0.8999361,-0.018 h 0.6833305 c 0.701675,0 1.2174361,0.006 1.4813139,0.018 0.083608,-0.16192 0.2155472,-0.61736 0.2515305,-0.8696 -0.035983,-0.06 -0.1375833,-0.078 -0.1915583,-0.036 -0.2102556,0.48578 -0.3418417,0.6597 -1.1034889,0.6477 -0.5041194,0 -0.6057194,-0.048 -0.6776861,-0.13194 -0.089958,-0.10195 -0.1019527,-0.31785 -0.1019527,-0.62371 v -0.76129 c 0,-0.15029 0.006,-0.16228 0.1439333,-0.16228 h 0.2878667 c 0.5214055,0 0.6237111,0.012 0.6656916,0.26388 l 0.041981,0.23989 c 0.047978,0.036 0.161925,0.036 0.1919111,-0.006 -0.006,-0.19226 -0.017992,-0.40181 -0.017992,-0.62971 0,-0.22189 0.011994,-0.43815 0.017992,-0.59972 -0.029986,-0.048 -0.1439334,-0.048 -0.1919111,-0.006 l -0.041981,0.20391 c -0.041981,0.25788 -0.1442861,0.26387 -0.6656916,0.26387 H 6.9013715 c -0.1379361,0 -0.1439333,-0.006 -0.1439333,-0.16192 v -1.01318 c 0,-0.34184 0,-0.35383 0.2578805,-0.35383 h 0.4014611 c 0.1622778,0 0.3421945,0.012 0.4801306,0.0536 0.1919111,0.0483 0.2818694,0.19826 0.377825,0.54574 0.047625,0.0363 0.1679222,0.0243 0.1919111,-0.024 -0.036336,-0.25753 -0.071967,-0.73131 -0.096308,-0.83327 -0.077611,0.012 -0.42545,0.0176 -0.8092722,0.0176 h -1.145117 c -0.2642306,0 -0.5457472,-0.006 -0.7739944,-0.0176 -0.047978,0.024 -0.053975,0.13159 -0.011995,0.17357 l 0.095956,0.012 c 0.2818694,0.0423 0.3358444,0.06 0.3358444,0.69603 z"
         style="fill:#231f20;fill-opacity:1;fill-rule:nonzero;stroke:none;stroke-width:0.35277778"
         id="path19876"
         inkscape:connector-curvature="0" />
      <path
         d="m 13.017586,144.51768 c 0,-0.47378 0,-0.99554 0.08396,-1.18145 0.04198,-0.096 0.143933,-0.11995 0.257881,-0.13794 l 0.137936,-0.03 c 0.04798,-0.042 0.03598,-0.14394 -0.01164,-0.17392 -0.2159,0.012 -0.37218,0.018 -0.629708,0.018 -0.233892,0 -0.456142,-0.006 -0.689681,-0.018 -0.05997,0.018 -0.06597,0.13193 -0.01235,0.17392 l 0.137936,0.018 c 0.150283,0.024 0.245886,0.06 0.299861,0.14993 0.108303,0.17991 0.1143,0.73166 0.1143,1.18145 v 1.16946 c 0,0.0956 0,0.12594 -0.01799,0.14393 -0.06032,-0.0363 -0.618067,-0.67169 -0.869598,-0.94756 l -0.599722,-0.6477 c -0.209903,-0.22789 -0.8636,-0.98319 -0.965553,-1.24142 -0.143933,0.012 -0.288219,0.018 -0.4138079,0.018 -0.1499306,0 -0.4797778,0.006 -0.7076722,-0.018 -0.059972,0.018 -0.065617,0.13793 -0.023989,0.17392 l 0.089958,0.018 c 0.083961,0.018 0.2518833,0.0663 0.3178528,0.11994 0.2039055,0.17427 0.1979083,0.26988 0.1979083,0.73766 v 1.42134 c 0,0.47378 0,0.99554 -0.077964,1.1811 -0.041981,0.0963 -0.1499305,0.1203 -0.2638778,0.13829 l -0.1319388,0.0296 c -0.047978,0.0423 -0.035983,0.14429 0.011994,0.17428 0.2102556,-0.012 0.3718278,-0.018 0.6237111,-0.018 0.2278945,0 0.4617865,0.006 0.6836835,0.018 0.05997,-0.018 0.06597,-0.13194 0.01199,-0.17428 l -0.131939,-0.018 c -0.14993,-0.0236 -0.251883,-0.06 -0.305858,-0.14993 -0.101953,-0.17992 -0.10795,-0.73131 -0.10795,-1.1811 v -1.16946 c 0,-0.3175 0,-0.38382 0.01799,-0.38382 0.1016,0.09 0.293864,0.31785 0.683683,0.75565 l 1.40335,1.60126 c 0.4318,0.49177 0.605367,0.69532 0.701675,0.82162 0.07161,0.006 0.155928,-0.018 0.203553,-0.0843 -0.01799,-0.13758 -0.01799,-0.87524 -0.01799,-1.05515 z"
         style="fill:#231f20;fill-opacity:1;fill-rule:nonzero;stroke:none;stroke-width:0.35277778"
         id="path19880"
         inkscape:connector-curvature="0" />
      <path
         d="m 15.398271,146.10676 c 0,0.63571 -0.05362,0.6537 -0.335844,0.67769 l -0.251531,0.03 c -0.04198,0.03 -0.03598,0.14993 0.01199,0.17392 0.383823,-0.012 0.665692,-0.018 0.92957,-0.018 0.263878,0 0.5334,0.006 0.881592,0.018 0.04798,-0.024 0.05433,-0.13194 0.01199,-0.17392 l -0.2159,-0.024 c -0.281869,-0.03 -0.336197,-0.048 -0.336197,-0.68368 v -2.59045 c 0,-0.25188 0.0067,-0.26387 0.162278,-0.26387 h 0.341841 c 0.641703,0 0.75565,0.11394 0.833261,0.58173 0.05433,0.042 0.156281,0.03 0.186267,-0.0183 -0.01799,-0.19156 0.02963,-0.70732 0.09031,-0.95356 -0.01235,-0.0176 -0.04233,-0.0296 -0.07832,-0.0296 -0.02434,0 -0.04798,0.012 -0.07232,0.024 -0.07161,0.13793 -0.161572,0.15557 -0.455789,0.15557 h -2.446514 c -0.407811,0 -0.491772,-0.006 -0.521758,-0.15557 -0.012,-0.018 -0.03598,-0.024 -0.05962,-0.024 -0.03034,0 -0.05433,0.006 -0.06632,0.024 -0.04198,0.2099 -0.131939,0.58173 -0.233891,0.90558 0.02399,0.06 0.150283,0.078 0.191911,0.042 0.221897,-0.48613 0.384175,-0.55174 0.935566,-0.55174 h 0.335845 c 0.155928,0 0.161572,0.012 0.161572,0.26387 z"
         style="fill:#231f20;fill-opacity:1;fill-rule:nonzero;stroke:none;stroke-width:0.35277778"
         id="path19884"
         inkscape:connector-curvature="0" />
      <path
         d="m 23.736033,142.52903 c -0.06174,-0.0138 -0.109714,-0.0208 -0.191558,-0.0413 -0.322439,-0.0822 -0.795161,-0.15064 -1.186039,-0.15064 -0.69215,0 -1.384653,0.19897 -1.891595,0.58243 -0.507647,0.39088 -0.8636,1.01459 -0.8636,1.81646 0,0.89782 0.418042,1.52153 0.973314,1.88489 0.493184,0.32209 1.075972,0.45932 1.754364,0.45932 0.445558,0 0.918633,-0.11677 1.06927,-0.16475 0.07549,-0.0205 0.157338,-0.048 0.239888,-0.0617 0.09596,-0.13017 0.280812,-0.58243 0.329142,-1.04175 -0.03457,-0.0614 -0.143933,-0.0889 -0.205669,-0.0275 -0.191911,0.44556 -0.569384,1.02165 -1.432631,1.02165 -0.884414,0 -1.795639,-0.71297 -1.795639,-2.17276 0,-1.40547 0.877006,-2.02212 1.747661,-2.02212 0.904523,0 1.213556,0.56903 1.329973,1.00083 0.04763,0.048 0.17145,0.0413 0.219075,-0.0138 -0.06844,-0.5073 -0.08255,-0.91158 -0.09596,-1.06927"
         style="fill:#231f20;fill-opacity:1;fill-rule:nonzero;stroke:none;stroke-width:0.35277778"
         id="path19888"
         inkscape:connector-curvature="0" />
      <path
         d="m 26.270811,143.15627 c 0.953558,0 1.361369,1.04951 1.361369,1.95509 0,1.20545 -0.551744,1.71521 -1.235427,1.71521 -1.025525,0 -1.379009,-1.12748 -1.379009,-1.95509 0,-1.27741 0.653345,-1.71521 1.253067,-1.71521 m 0.07761,-0.23989 c -1.259064,0 -2.1463,0.90523 -2.1463,2.12901 0,1.06751 0.779286,2.02107 2.134658,2.02107 1.211439,0 2.111023,-0.88195 2.111023,-2.0634 0,-1.09114 -0.71367,-2.08668 -2.099381,-2.08668"
         style="fill:#231f20;fill-opacity:1;fill-rule:evenodd;stroke:none;stroke-width:0.35277778"
         id="path19892"
         inkscape:connector-curvature="0" />
      <path
         d="m 31.022022,143.15627 c 0.953206,0 1.361017,1.04951 1.361017,1.95509 0,1.20545 -0.551392,1.71521 -1.235075,1.71521 -1.025878,0 -1.379361,-1.12748 -1.379361,-1.95509 0,-1.27741 0.653344,-1.71521 1.253419,-1.71521 m 0.07796,-0.23989 c -1.25977,0 -2.147006,0.90523 -2.147006,2.12901 0,1.06751 0.779286,2.02107 2.134659,2.02107 1.211439,0 2.111022,-0.88195 2.111022,-2.0634 0,-1.09114 -0.713317,-2.08668 -2.098675,-2.08668"
         style="fill:#231f20;fill-opacity:1;fill-rule:evenodd;stroke:none;stroke-width:0.35277778"
         id="path19896"
         inkscape:connector-curvature="0" />
      <path
         d="m 34.561548,143.87597 c 0,-0.63571 0.05362,-0.6537 0.335844,-0.68968 l 0.101953,-0.018 c 0.04198,-0.03 0.03563,-0.14993 -0.01235,-0.17392 -0.233539,0.012 -0.503767,0.018 -0.767644,0.018 -0.27552,0 -0.545395,-0.006 -0.791281,-0.018 -0.04833,0.024 -0.05433,0.13194 -0.01199,0.17392 l 0.113947,0.018 c 0.281516,0.036 0.335844,0.054 0.335844,0.68968 v 2.23061 c 0,0.63606 -0.05433,0.6537 -0.335844,0.69603 l -0.08396,0.012 c -0.04233,0.03 -0.03598,0.14958 0.01199,0.17357 0.2159,-0.012 0.497417,-0.0176 0.761295,-0.0176 0.263877,0 0.534105,0.006 0.815622,0.0176 0.04798,-0.024 0.05433,-0.14359 0.01199,-0.17357 l -0.149578,-0.0183 c -0.282222,-0.036 -0.335844,-0.0536 -0.335844,-0.68968 v -0.76129 c 0,-0.17392 -0.01235,-0.31785 0.137936,-0.31785 0.05398,0 0.1016,0.0476 0.143581,0.0899 0.22225,0.2279 0.935566,1.19945 1.187802,1.5113 0.06597,0.084 0.05362,0.14359 -0.04269,0.16193 l -0.161572,0.024 c -0.05433,0.03 -0.05433,0.14958 0.01199,0.17357 0.263877,-0.012 0.533752,-0.0176 0.827616,-0.0176 0.318206,0 0.557742,0.006 0.767645,0.0176 0.04798,-0.0176 0.05433,-0.14359 0.01199,-0.17357 l -0.143933,-0.0183 c -0.179917,-0.024 -0.3175,-0.078 -0.443795,-0.22789 -0.4318,-0.50341 -1.001536,-1.21708 -1.474964,-1.84079 -0.06632,-0.09 -0.05433,-0.12595 0.01764,-0.19791 0.233892,-0.23389 0.473781,-0.47978 0.731661,-0.73766 0.413809,-0.40181 0.575734,-0.54575 1.133475,-0.62371 0.05997,-0.03 0.04798,-0.15593 -0.01799,-0.17392 -0.2159,0.006 -0.401814,0.018 -0.660047,0.018 -0.221545,0 -0.419453,-0.006 -0.671337,-0.018 -0.04798,0.048 -0.05997,0.13194 -0.01199,0.17392 l 0.185914,0.054 c 0.07197,0.018 0.06597,0.066 -0.04198,0.20391 -0.07197,0.096 -0.245886,0.29422 -0.32385,0.37218 l -0.611716,0.65934 c -0.197909,0.2159 -0.335492,0.35384 -0.449439,0.35384 -0.09631,0 -0.101953,-0.10795 -0.101953,-0.27023 z"
         style="fill:#231f20;fill-opacity:1;fill-rule:nonzero;stroke:none;stroke-width:0.35277778"
         id="path19900"
         inkscape:connector-curvature="0" />
      <path
         d="m 38.27785,146.10676 c 0,0.63571 -0.05398,0.6537 -0.336197,0.68368 l -0.221897,0.024 c -0.04198,0.042 -0.03563,0.14993 0.01199,0.17392 0.269875,-0.012 0.635706,-0.018 0.899583,-0.018 h 0.683684 c 0.702027,0 1.217789,0.006 1.481314,0.018 0.08396,-0.16192 0.215547,-0.61736 0.251883,-0.8696 -0.03634,-0.06 -0.137936,-0.078 -0.191911,-0.036 -0.209903,0.48578 -0.341489,0.6597 -1.103489,0.6477 -0.503767,0 -0.60572,-0.048 -0.677333,-0.13194 -0.08996,-0.10195 -0.102306,-0.31785 -0.102306,-0.62371 v -0.76129 c 0,-0.15029 0.0064,-0.16228 0.143933,-0.16228 h 0.287867 c 0.521758,0 0.624064,0.012 0.665692,0.26388 l 0.04198,0.23989 c 0.04833,0.036 0.161572,0.036 0.191911,-0.006 -0.0056,-0.19226 -0.01764,-0.40181 -0.01764,-0.62971 0,-0.22189 0.012,-0.43815 0.01764,-0.59972 -0.03034,-0.048 -0.14358,-0.048 -0.191911,-0.006 l -0.04198,0.20391 c -0.04163,0.25788 -0.143934,0.26387 -0.665692,0.26387 h -0.287867 c -0.137583,0 -0.143933,-0.006 -0.143933,-0.16192 v -1.01318 c 0,-0.34184 0,-0.35383 0.257881,-0.35383 h 0.402166 c 0.161572,0 0.341489,0.012 0.479425,0.0536 0.191911,0.0483 0.28187,0.19826 0.378178,0.54574 0.04762,0.0363 0.167569,0.0243 0.191558,-0.024 -0.03598,-0.25753 -0.07197,-0.73131 -0.0956,-0.83327 -0.07832,0.012 -0.425803,0.0176 -0.809625,0.0176 h -1.145823 c -0.263877,0 -0.5461,-0.006 -0.773641,-0.0176 -0.04798,0.024 -0.05327,0.13159 -0.01199,0.17357 l 0.09596,0.012 c 0.282222,0.0423 0.336197,0.06 0.336197,0.69603 z"
         style="fill:#231f20;fill-opacity:1;fill-rule:nonzero;stroke:none;stroke-width:0.35277778"
         id="path19904"
         inkscape:connector-curvature="0" />
      <path
         d="m 9.3782595,149.82359 3.0543495,-1.44392 3.073048,1.45274 -3.054703,1.44392 -1.114425,-0.5708 c 0.172508,-0.47695 0.608189,-0.79727 1.073503,-1.05268 -0.669925,0.0628 -1.337028,0.30656 -1.676048,0.81174 z"
         style="fill:#d29908;fill-opacity:1;fill-rule:nonzero;stroke:none;stroke-width:0.35277778"
         id="path19908"
         inkscape:connector-curvature="0" />
      <path
         inkscape:connector-curvature="0"
         id="path19910"
         style="fill:#d29908;fill-opacity:1;fill-rule:nonzero;stroke:none;stroke-width:0.35277778"
         d="M -16.101785,149.94368 H 8.4300281 v -0.24765 H -16.101785 Z" />
      <path
         inkscape:connector-curvature="0"
         id="path19912"
         style="fill:#d29908;fill-opacity:1;fill-rule:nonzero;stroke:none;stroke-width:0.35277778"
         d="m 16.435614,149.94368 h 24.531813 v -0.24765 H 16.435614 Z" />
    </g>
  </g>
</svg>
